<?xml version="1.0" encoding="utf-8"?>
<svg width="47px" height="47px" viewBox="0 0 47 47" version="1.1" xmlns:xlink="http://www.w3.org/1999/xlink" xmlns="http://www.w3.org/2000/svg">
  <desc>Created with Lunacy</desc>
  <path d="M0 0L0 8.40841" transform="translate(3.158401 0.75)" id="New-shape" fill="none" stroke="#000000" stroke-width="1.5" />
  <path d="M0 0L7.50751 0" transform="translate(0.9762268 3.272522)" id="New-shape" fill="none" stroke="#000000" stroke-width="1.5" />
  <path d="M0 0L0 2" transform="translate(3.158401 12.26151)" id="New-shape" fill="none" stroke="#000000" stroke-width="1" />
  <path d="M0 0L0 2" transform="translate(3.158401 16.36562)" id="New-shape" fill="none" stroke="#000000" stroke-width="1" />
  <path d="M0 0L0 2" transform="translate(3.158401 20.27253)" id="New-shape" fill="none" stroke="#000000" stroke-width="1" />
  <path d="M0 0L0 2" transform="translate(3.158401 24.37663)" id="New-shape" fill="none" stroke="#000000" stroke-width="1" />
  <path d="M0 0L0 2" transform="translate(3.158401 29.16841)" id="New-shape" fill="none" stroke="#000000" stroke-width="1" />
  <path d="M0 0L0 2" transform="translate(3.158401 33.27251)" id="New-shape" fill="none" stroke="#000000" stroke-width="1" />
  <path d="M0 0L0 2" transform="translate(43.15842 12.26152)" id="New-shape" fill="none" stroke="#000000" stroke-width="1" />
  <path d="M0 0L0 2" transform="translate(43.15842 16.36562)" id="New-shape" fill="none" stroke="#000000" stroke-width="1" />
  <path d="M0 0L0 2" transform="translate(43.15842 20.27254)" id="New-shape" fill="none" stroke="#000000" stroke-width="1" />
  <path d="M0 0L0 2" transform="translate(43.15842 24.37664)" id="New-shape" fill="none" stroke="#000000" stroke-width="1" />
  <path d="M0 0L0 2" transform="translate(43.15842 29.16842)" id="New-shape" fill="none" stroke="#000000" stroke-width="1" />
  <path d="M0 0L0 2" transform="translate(43.15842 33.27252)" id="New-shape" fill="none" stroke="#000000" stroke-width="1" />
  <path d="M0 0L0 2" transform="matrix(7.54979E-08 1 -1 7.54979E-08 14.1584 43.27252)" id="New-shape" fill="none" stroke="#000000" stroke-width="1" />
  <path d="M0 0L0 2" transform="matrix(7.54979E-08 1 -1 7.54979E-08 18.1584 43.27252)" id="New-shape" fill="none" stroke="#000000" stroke-width="1" />
  <path d="M0 0L0 2" transform="matrix(7.54979E-08 1 -1 7.54979E-08 26.15839 43.27252)" id="New-shape" fill="none" stroke="#000000" stroke-width="1" />
  <path d="M0 0L0 2" transform="matrix(7.54979E-08 1 -1 7.54979E-08 22.15842 43.27251)" id="New-shape" fill="none" stroke="#000000" stroke-width="1" />
  <path d="M0 0L0 2" transform="matrix(7.54979E-08 1 -1 7.54979E-08 30.1584 43.27252)" id="New-shape" fill="none" stroke="#000000" stroke-width="1" />
  <path d="M0 0L0 2" transform="matrix(7.54979E-08 1 -1 7.54979E-08 34.1584 43.27253)" id="New-shape" fill="none" stroke="#000000" stroke-width="1" />
  <path d="M0 0L0 2" transform="matrix(7.54979E-08 1 -1 7.54979E-08 14.15839 3.27253)" id="New-shape" fill="none" stroke="#000000" stroke-width="1" />
  <path d="M0 0L0 2" transform="matrix(7.54979E-08 1 -1 7.54979E-08 18.15839 3.27253)" id="New-shape" fill="none" stroke="#000000" stroke-width="1" />
  <path d="M0 0L0 2" transform="matrix(7.54979E-08 1 -1 7.54979E-08 26.15837 3.27253)" id="New-shape" fill="none" stroke="#000000" stroke-width="1" />
  <path d="M0 0L0 2" transform="matrix(7.54979E-08 1 -1 7.54979E-08 22.1584 3.272522)" id="New-shape" fill="none" stroke="#000000" stroke-width="1" />
  <path d="M0 0L0 2" transform="matrix(7.54979E-08 1 -1 7.54979E-08 30.15839 3.27253)" id="New-shape" fill="none" stroke="#000000" stroke-width="1" />
  <path d="M0 0L0 2" transform="matrix(7.54979E-08 1 -1 7.54979E-08 34.15839 3.272537)" id="New-shape" fill="none" stroke="#000000" stroke-width="1" />
  <path d="M0 0L0 8.40841" transform="matrix(-1 -5.214612E-08 5.214612E-08 -1 43.1584 45.68093)" id="New-shape" fill="none" stroke="#000000" stroke-width="1.5" />
  <path d="M0 0L7.50751 0" transform="matrix(-1 -5.214612E-08 5.214612E-08 -1 45.15842 43.27251)" id="New-shape" fill="none" stroke="#000000" stroke-width="1.5" />
  <path d="M0 0L0 8.40841" transform="matrix(1.192488E-08 1 -1 1.192488E-08 45.56682 3.454689)" id="New-shape" fill="none" stroke="#000000" stroke-width="1.5" />
  <path d="M0 0L7.50751 0" transform="matrix(1.192488E-08 1 -1 1.192488E-08 43.0443 1.272514)" id="New-shape" fill="none" stroke="#000000" stroke-width="1.5" />
  <path d="M0 0L0 8.40841" transform="matrix(-4.371139E-08 -1 1 -4.371139E-08 0.75 43.09035)" id="New-shape" fill="none" stroke="#000000" stroke-width="1.5" />
  <path d="M0 0L7.50751 0" transform="matrix(-4.371139E-08 -1 1 -4.371139E-08 3.272522 45.27252)" id="New-shape" fill="none" stroke="#000000" stroke-width="1.5" />
  <path d="M0 1L26 1" transform="translate(10.1584 15.27252)" id="New-shape" fill="none" stroke="#000000" stroke-width="2" />
  <path d="M0 1L26 1" transform="translate(10.1584 22.27252)" id="New-shape" fill="none" stroke="#000000" stroke-width="2" />
  <path d="M0 1L12 1" transform="translate(10.15842 29.27252)" id="New-shape" fill="none" stroke="#000000" stroke-width="2" />
</svg>