<?xml version="1.0" encoding="UTF-8" standalone="yes"?>
<svg xmlns="http://www.w3.org/2000/svg" xmlns:xlink="http://www.w3.org/1999/xlink" viewBox="0 0 64 64" version="1.1" width="64" height="64" fill="#000000">
  <g id="surface1">
    <path style=" " d="M 55 3.039063 C 53.40625 3.039063 51.90625 3.65625 50.78125 4.78125 L 47.859375 7.703125 C 47.050781 7.15625 46.097656 6.867188 45.097656 6.867188 C 44.59375 6.867188 44.105469 6.960938 43.636719 7.109375 C 40.894531 5.394531 37.367188 5.753906 35.046875 8.078125 L 22.316406 20.804688 C 21.941406 21.179688 21.941406 21.789063 22.316406 22.167969 C 22.507813 22.355469 22.753906 22.449219 23 22.449219 C 23.246094 22.449219 23.492188 22.355469 23.683594 22.167969 L 36.40625 9.4375 C 37.796875 8.050781 39.863281 7.648438 41.648438 8.273438 C 41.628906 8.289063 41.609375 8.300781 41.59375 8.320313 L 12.441406 37.46875 C 10.589844 39.320313 9.171875 41.613281 8.34375 44.097656 L 5.6875 52.070313 C 5.445313 52.800781 5.5 53.574219 5.8125 54.246094 L 3.875 58.8125 C 3.714844 59.1875 3.800781 59.621094 4.089844 59.910156 C 4.28125 60.101563 4.535156 60.203125 4.796875 60.203125 C 4.929688 60.203125 5.058594 60.179688 5.1875 60.125 L 9.757813 58.1875 C 10.144531 58.367188 10.5625 58.46875 10.984375 58.46875 C 11.300781 58.46875 11.621094 58.417969 11.929688 58.3125 L 19.902344 55.65625 C 22.386719 54.828125 24.679688 53.410156 26.53125 51.558594 L 55.679688 22.40625 C 56.617188 21.472656 57.136719 20.226563 57.136719 18.902344 C 57.136719 17.902344 56.839844 16.949219 56.296875 16.140625 L 59.214844 13.21875 C 60.34375 12.089844 60.964844 10.59375 60.964844 9 C 60.964844 7.40625 60.34375 5.910156 59.21875 4.78125 C 58.089844 3.65625 56.59375 3.039063 55 3.039063 Z M 55 4.960938 C 56.078125 4.960938 57.089844 5.382813 57.855469 6.148438 C 58.617188 6.90625 59.035156 7.921875 59.035156 9 C 59.035156 10.078125 58.617188 11.089844 57.855469 11.855469 L 55 14.707031 L 49.292969 9 L 52.144531 6.148438 C 52.910156 5.382813 53.921875 4.960938 55 4.960938 Z M 45.097656 8.789063 C 45.910156 8.789063 46.671875 9.109375 47.246094 9.679688 L 54.316406 16.753906 C 54.890625 17.328125 55.207031 18.085938 55.207031 18.898438 C 55.207031 19.710938 54.890625 20.472656 54.316406 21.046875 L 47.925781 27.4375 L 36.5625 16.074219 L 42.953125 9.679688 C 43.527344 9.109375 44.289063 8.789063 45.097656 8.789063 Z M 43.605469 12.324219 C 43.351563 12.324219 43.09375 12.421875 42.898438 12.613281 L 41.484375 14.03125 C 41.09375 14.421875 41.09375 15.050781 41.484375 15.441406 C 41.679688 15.636719 41.933594 15.734375 42.191406 15.734375 C 42.449219 15.734375 42.703125 15.636719 42.898438 15.441406 L 44.3125 14.03125 C 44.703125 13.636719 44.703125 13.007813 44.3125 12.613281 C 44.117188 12.417969 43.859375 12.320313 43.605469 12.324219 Z M 47.140625 15.859375 C 46.886719 15.859375 46.628906 15.957031 46.4375 16.152344 L 45.019531 17.5625 C 44.628906 17.957031 44.628906 18.585938 45.019531 18.980469 C 45.214844 19.171875 45.472656 19.269531 45.730469 19.269531 C 45.984375 19.269531 46.242188 19.171875 46.4375 18.980469 L 47.847656 17.5625 C 48.242188 17.171875 48.242188 16.542969 47.847656 16.152344 C 47.652344 15.953125 47.398438 15.855469 47.140625 15.859375 Z M 35.203125 17.433594 L 46.566406 28.796875 L 26.03125 49.328125 L 14.667969 37.964844 Z M 50.675781 19.394531 C 50.421875 19.394531 50.164063 19.492188 49.96875 19.6875 L 48.558594 21.101563 C 48.164063 21.492188 48.164063 22.125 48.558594 22.515625 C 48.75 22.710938 49.007813 22.808594 49.265625 22.808594 C 49.519531 22.808594 49.777344 22.710938 49.96875 22.515625 L 51.386719 21.101563 C 51.777344 20.710938 51.777344 20.078125 51.386719 19.6875 C 51.1875 19.492188 50.933594 19.394531 50.675781 19.394531 Z M 35 20.765625 C 34.753906 20.765625 34.503906 20.859375 34.316406 21.046875 L 31.316406 24.046875 C 30.941406 24.421875 30.941406 25.03125 31.316406 25.40625 C 31.507813 25.597656 31.753906 25.6875 32 25.6875 C 32.246094 25.6875 32.492188 25.597656 32.683594 25.40625 L 35.683594 22.40625 C 36.058594 22.03125 36.058594 21.421875 35.683594 21.046875 C 35.496094 20.859375 35.246094 20.765625 35 20.765625 Z M 29 26.765625 C 28.753906 26.765625 28.503906 26.859375 28.316406 27.046875 L 19.046875 36.316406 C 18.667969 36.695313 18.671875 37.304688 19.046875 37.679688 C 19.234375 37.867188 19.484375 37.964844 19.730469 37.964844 C 19.972656 37.964844 20.21875 37.867188 20.40625 37.683594 L 29.683594 28.410156 C 30.058594 28.03125 30.058594 27.425781 29.683594 27.046875 C 29.492188 26.859375 29.246094 26.765625 29 26.765625 Z M 13.285156 39.410156 L 24.589844 50.714844 C 23.054688 52.09375 21.25 53.175781 19.292969 53.828125 L 11.320313 56.484375 C 11.171875 56.535156 11.019531 56.539063 10.875 56.519531 C 10.828125 56.4375 10.773438 56.359375 10.707031 56.292969 L 7.707031 53.292969 C 7.636719 53.222656 7.558594 53.171875 7.476563 53.125 C 7.460938 52.980469 7.464844 52.828125 7.515625 52.679688 L 10.171875 44.707031 C 10.824219 42.75 11.90625 40.945313 13.285156 39.410156 Z "/>
  </g>
</svg>
