<?xml version="1.0" encoding="UTF-8"?>
<svg xmlns="http://www.w3.org/2000/svg" xmlns:xlink="http://www.w3.org/1999/xlink" width="60pt" height="60pt" viewBox="0 0 60 60" version="1.1">
<g id="surface83694">
<path style=" stroke:none;fill-rule:nonzero;fill:rgb(0%,0%,0%);fill-opacity:1;" d="M 29.96875 5.972656 C 29.359375 5.980469 28.785156 6.269531 28.414062 6.753906 C 28.410156 6.757812 28.410156 6.761719 28.40625 6.765625 L 22.585938 12.585938 C 22.0625 13.085938 21.851562 13.832031 22.035156 14.535156 C 22.21875 15.234375 22.765625 15.78125 23.464844 15.964844 C 24.167969 16.148438 24.914062 15.9375 25.414062 15.414062 L 28 12.828125 L 28 22 C 27.988281 22.722656 28.367188 23.390625 28.992188 23.753906 C 29.613281 24.121094 30.386719 24.121094 31.007812 23.753906 C 31.632812 23.390625 32.011719 22.722656 32 22 L 32 12.828125 L 34.585938 15.414062 C 35.085938 15.9375 35.832031 16.148438 36.535156 15.964844 C 37.234375 15.78125 37.78125 15.234375 37.964844 14.535156 C 38.148438 13.832031 37.9375 13.085938 37.414062 12.585938 L 31.582031 6.753906 C 31.199219 6.253906 30.601562 5.964844 29.96875 5.972656 Z M 13.960938 21.980469 C 13.441406 21.996094 12.949219 22.214844 12.585938 22.585938 L 6.761719 28.410156 C 6.265625 28.789062 5.976562 29.375 5.972656 29.996094 C 5.972656 30.617188 6.261719 31.207031 6.753906 31.585938 C 6.757812 31.589844 6.761719 31.589844 6.765625 31.59375 L 12.585938 37.414062 C 13.085938 37.9375 13.832031 38.148438 14.535156 37.964844 C 15.234375 37.78125 15.78125 37.234375 15.964844 36.535156 C 16.148438 35.832031 15.9375 35.085938 15.414062 34.585938 L 12.828125 32 L 22 32 C 22.722656 32.011719 23.390625 31.632812 23.753906 31.007812 C 24.121094 30.386719 24.121094 29.613281 23.753906 28.992188 C 23.390625 28.367188 22.722656 27.988281 22 28 L 12.828125 28 L 15.414062 25.414062 C 16.003906 24.839844 16.183594 23.960938 15.863281 23.199219 C 15.539062 22.441406 14.785156 21.957031 13.960938 21.980469 Z M 45.980469 21.980469 C 45.167969 21.980469 44.433594 22.472656 44.128906 23.226562 C 43.820312 23.980469 44.003906 24.847656 44.585938 25.414062 L 47.171875 28 L 38 28 C 37.277344 27.988281 36.609375 28.367188 36.246094 28.992188 C 35.878906 29.613281 35.878906 30.386719 36.246094 31.007812 C 36.609375 31.632812 37.277344 32.011719 38 32 L 47.171875 32 L 44.585938 34.585938 C 44.0625 35.085938 43.851562 35.832031 44.035156 36.535156 C 44.21875 37.234375 44.765625 37.78125 45.464844 37.964844 C 46.167969 38.148438 46.914062 37.9375 47.414062 37.414062 L 53.238281 31.589844 C 53.734375 31.210938 54.023438 30.625 54.027344 30.003906 C 54.027344 29.382812 53.738281 28.792969 53.246094 28.414062 C 53.242188 28.410156 53.238281 28.410156 53.234375 28.40625 L 47.414062 22.585938 C 47.039062 22.199219 46.519531 21.980469 45.980469 21.980469 Z M 29.96875 35.972656 C 28.867188 35.988281 27.984375 36.898438 28 38 L 28 47.171875 L 25.414062 44.585938 C 25.039062 44.199219 24.519531 43.980469 23.980469 43.980469 C 23.167969 43.980469 22.433594 44.472656 22.128906 45.226562 C 21.820312 45.980469 22.003906 46.847656 22.585938 47.414062 L 28.410156 53.238281 C 28.789062 53.734375 29.378906 54.027344 30.003906 54.023438 C 30.628906 54.023438 31.214844 53.730469 31.59375 53.234375 L 37.414062 47.414062 C 38.007812 46.84375 38.191406 45.964844 37.875 45.203125 C 37.558594 44.441406 36.804688 43.953125 35.980469 43.972656 C 35.453125 43.984375 34.953125 44.207031 34.585938 44.585938 L 32 47.171875 L 32 38 C 32.007812 37.460938 31.796875 36.9375 31.414062 36.558594 C 31.03125 36.175781 30.507812 35.964844 29.96875 35.972656 Z M 29.96875 35.972656 "/>
</g>
</svg>
